<svg id="Layer_1" data-name="Layer 1" xmlns="http://www.w3.org/2000/svg" viewBox="0 0 888.76 288.41"><defs><style>.cls-1{fill:#7ed321;}.cls-2,.cls-3{fill:#1b1b1b;}.cls-2{opacity:0.2;}</style></defs><title>logo</title><rect class="cls-1" x="270.1" y="62.49" width="49.85" height="49.85" rx="7.92" ry="7.92"/><rect class="cls-1" x="330.04" y="62.48" width="49.85" height="49.85" rx="7.92" ry="7.92"/><rect class="cls-1" x="390.13" y="62.48" width="49.85" height="49.85" rx="7.92" ry="7.92"/><rect class="cls-1" x="451.72" y="63.03" width="49.85" height="49.85" rx="7.92" ry="7.92"/><rect class="cls-1" x="514.73" y="63.03" width="49.85" height="49.85" rx="7.92" ry="7.92"/><rect class="cls-1" x="574.97" y="62.79" width="49.85" height="49.85" rx="7.92" ry="7.92"/><rect class="cls-1" x="635.87" y="62.79" width="49.85" height="49.85" rx="7.92" ry="7.92"/><rect class="cls-1" x="697" y="62.79" width="49.85" height="49.85" rx="7.92" ry="7.92"/><rect class="cls-1" x="86.01" y="62.48" width="49.85" height="49.85" rx="7.92" ry="7.92"/><rect class="cls-1" x="148.45" y="62.49" width="49.85" height="49.85" rx="7.92" ry="7.92"/><rect class="cls-1" x="208.69" y="62.48" width="49.85" height="49.85" rx="7.92" ry="7.92"/><rect class="cls-1" x="106.5" y="122.22" width="49.85" height="49.85" rx="7.92" ry="7.92"/><rect class="cls-1" x="122.89" y="182.19" width="49.85" height="49.85" rx="7.92" ry="7.92"/><rect class="cls-1" x="183.11" y="182.19" width="49.85" height="49.85" rx="7.92" ry="7.92"/><rect class="cls-1" x="243.74" y="182.19" width="49.85" height="49.85" rx="7.92" ry="7.92"/><rect class="cls-1" x="304.52" y="182.19" width="49.85" height="49.85" rx="7.92" ry="7.92"/><rect class="cls-1" x="366.46" y="182.19" width="49.85" height="49.85" rx="7.92" ry="7.92"/><rect class="cls-1" x="427.26" y="182.19" width="49.85" height="49.85" rx="7.92" ry="7.92"/><rect class="cls-1" x="168.53" y="122.22" width="49.85" height="49.85" rx="7.92" ry="7.92"/><rect class="cls-1" x="229.35" y="122.22" width="49.85" height="49.85" rx="7.92" ry="7.92"/><rect class="cls-1" x="288.65" y="122.22" width="49.85" height="49.85" rx="7.92" ry="7.92"/><rect class="cls-1" x="349.69" y="122.22" width="49.85" height="49.85" rx="7.92" ry="7.92"/><rect class="cls-2" width="49.85" height="49.85" rx="7.92" ry="7.92"/><rect class="cls-2" x="60.57" width="49.85" height="49.85" rx="7.92" ry="7.92"/><rect class="cls-2" x="122.54" width="49.85" height="49.85" rx="7.92" ry="7.92"/><rect class="cls-2" x="183.11" width="49.85" height="49.85" rx="7.92" ry="7.92"/><rect class="cls-2" x="243.68" width="49.85" height="49.85" rx="7.92" ry="7.92"/><rect class="cls-2" x="306.12" width="49.85" height="49.85" rx="7.92" ry="7.92"/><rect class="cls-2" x="365.76" width="49.85" height="49.85" rx="7.92" ry="7.92"/><rect class="cls-2" x="426.79" width="49.85" height="49.85" rx="7.92" ry="7.92"/><rect class="cls-2" x="488.3" width="49.85" height="49.85" rx="7.92" ry="7.92"/><rect class="cls-2" x="549.33" width="49.85" height="49.85" rx="7.92" ry="7.92"/><rect class="cls-2" x="609.9" width="49.85" height="49.85" rx="7.92" ry="7.92"/><rect class="cls-2" x="670.94" width="49.85" height="49.85" rx="7.92" ry="7.92"/><rect class="cls-2" x="731.51" width="49.85" height="49.85" rx="7.92" ry="7.92"/><rect class="cls-2" x="756.44" y="59.64" width="49.85" height="49.85" rx="7.92" ry="7.92"/><rect class="cls-2" y="59.64" width="72.69" height="49.85" rx="7.92" ry="7.92"/><rect class="cls-2" y="119.28" width="89.46" height="49.85" rx="7.92" ry="7.92"/><rect class="cls-2" y="178.92" width="105.77" height="49.85" rx="7.92" ry="7.92"/><rect class="cls-2" x="531.4" y="119.28" width="49.85" height="49.85" rx="7.92" ry="7.92"/><rect class="cls-2" x="468.49" y="119.28" width="49.85" height="49.85" rx="7.92" ry="7.92"/><rect class="cls-2" x="407.46" y="119.28" width="49.85" height="49.85" rx="7.92" ry="7.92"/><rect class="cls-2" x="714.04" y="119.28" width="49.85" height="49.85" rx="7.92" ry="7.92"/><rect class="cls-2" x="651.14" y="119.28" width="49.85" height="49.85" rx="7.92" ry="7.92"/><rect class="cls-2" x="590.1" y="119.28" width="49.85" height="49.85" rx="7.92" ry="7.92"/><rect class="cls-2" x="82.7" y="238.56" width="49.85" height="49.85" rx="7.92" ry="7.92"/><rect class="cls-2" y="238.56" width="72.69" height="49.85" rx="7.92" ry="7.92"/><rect class="cls-2" x="146.77" y="238.56" width="72.69" height="49.85" rx="7.92" ry="7.92"/><rect class="cls-2" x="228.77" y="238.56" width="396.97" height="49.85" rx="7.92" ry="7.92"/><rect class="cls-2" x="546.77" y="178.92" width="49.85" height="49.85" rx="7.92" ry="7.92"/><rect class="cls-2" x="483.87" y="178.92" width="49.85" height="49.85" rx="7.92" ry="7.92"/><rect class="cls-2" x="666.52" y="178.92" width="49.85" height="49.85" rx="7.92" ry="7.92"/><rect class="cls-2" x="605.48" y="178.92" width="49.85" height="49.85" rx="7.92" ry="7.92"/><rect class="cls-2" x="694.94" y="238.56" width="49.85" height="49.85" rx="7.92" ry="7.92"/><rect class="cls-2" x="756.44" y="238.56" width="69.66" height="49.85" rx="7.92" ry="7.92"/><rect class="cls-2" x="729.07" y="178.92" width="159.7" height="49.85" rx="7.92" ry="7.92"/><rect class="cls-2" x="772.4" y="119.28" width="116.37" height="49.85" rx="7.92" ry="7.92"/><rect class="cls-2" x="815.26" y="59.64" width="73.5" height="49.85" rx="7.92" ry="7.92"/><rect class="cls-2" x="793.83" width="94.93" height="49.85" rx="7.92" ry="7.92"/><rect class="cls-2" x="838.91" y="238.56" width="49.85" height="49.85" rx="7.92" ry="7.92"/><rect class="cls-2" x="633.9" y="238.56" width="49.85" height="49.85" rx="7.92" ry="7.92"/><rect class="cls-3" x="693.54" y="59.64" width="49.85" height="49.85" rx="7.92" ry="7.92"/><rect class="cls-3" x="632.5" y="59.64" width="49.85" height="49.85" rx="7.92" ry="7.92"/><rect class="cls-3" x="571.47" y="59.64" width="49.85" height="49.85" rx="7.92" ry="7.92"/><rect class="cls-3" x="510.43" y="59.64" width="49.85" height="49.85" rx="7.92" ry="7.92"/><rect class="cls-3" x="447.53" y="59.64" width="49.85" height="49.85" rx="7.92" ry="7.92"/><rect class="cls-3" x="386.76" y="59.22" width="49.85" height="49.85" rx="7.92" ry="7.92"/><rect class="cls-3" x="326.52" y="59.64" width="49.85" height="49.85" rx="7.92" ry="7.92"/><rect class="cls-3" x="267.12" y="59.64" width="49.85" height="49.85" rx="7.92" ry="7.92"/><rect class="cls-3" x="285.09" y="119.28" width="49.85" height="49.85" rx="7.92" ry="7.92"/><rect class="cls-3" x="225.5" y="119.28" width="49.85" height="49.85" rx="7.92" ry="7.92"/><rect class="cls-3" x="164.66" y="119.28" width="49.85" height="49.85" rx="7.92" ry="7.92"/><rect class="cls-3" x="102.98" y="119.28" width="49.85" height="49.85" rx="7.92" ry="7.92"/><rect class="cls-3" x="346.42" y="119.28" width="49.85" height="49.85" rx="7.92" ry="7.92"/><rect class="cls-3" x="300.47" y="178.92" width="49.85" height="49.85" rx="7.92" ry="7.92"/><rect class="cls-3" x="239.85" y="178.92" width="49.85" height="49.85" rx="7.92" ry="7.92"/><rect class="cls-3" x="179.5" y="178.92" width="49.85" height="49.85" rx="7.92" ry="7.92"/><rect class="cls-3" x="119.33" y="178.92" width="49.85" height="49.85" rx="7.92" ry="7.92"/><rect class="cls-3" x="361.81" y="178.92" width="49.85" height="49.85" rx="7.92" ry="7.92"/><rect class="cls-3" x="83.11" y="59.64" width="49.85" height="49.85" rx="7.92" ry="7.92"/><rect class="cls-3" x="145.11" y="59.64" width="49.85" height="49.85" rx="7.92" ry="7.92"/><rect class="cls-3" x="205.49" y="59.64" width="49.85" height="49.85" rx="7.92" ry="7.92"/><rect class="cls-3" x="422.77" y="178.92" width="49.85" height="49.85" rx="7.92" ry="7.92"/><polygon class="cls-1" points="183.34 101.34 177.51 101.34 162.56 77.54 162.56 101.34 156.73 101.34 156.73 67.79 162.56 67.79 177.56 91.69 177.56 67.79 183.34 67.79 183.34 101.34"/><polygon class="cls-1" points="243.72 72.49 233.26 72.49 233.26 101.34 227.48 101.34 227.48 72.49 217.11 72.49 217.11 67.79 243.72 67.79 243.72 72.49"/><rect class="cls-1" x="105.13" y="67.79" width="5.81" height="33.55"/><path class="cls-1" d="M321,106.45H307.23v10.32h16.1v4.66H301.4V87.88h21.77v4.7H307.23v9.26H321Z" transform="translate(-20.31 -20.09)"/><path class="cls-1" d="M371.44,108.52h-6.5v12.91h-5.83V87.88h11.8q5.8,0,9,2.6T383,98a9.37,9.37,0,0,1-1.63,5.63,10.34,10.34,0,0,1-4.52,3.5l7.53,14v.3h-6.24Zm-6.5-4.7h6a6.67,6.67,0,0,0,4.61-1.48,5.18,5.18,0,0,0,1.66-4.07,5.51,5.51,0,0,0-1.53-4.17,6.53,6.53,0,0,0-4.58-1.52h-6.15Z" transform="translate(-20.31 -20.09)"/><path class="cls-1" d="M438.48,114.11h-13l-2.72,7.81H416.7l12.67-33.55h5.23l12.7,33.55h-6.09Zm-11.37-4.7h9.73L432,95.49Z" transform="translate(-20.31 -20.09)"/><path class="cls-1" d="M506.1,111a12.11,12.11,0,0,1-4,8.37q-3.47,3-9.2,3a13,13,0,0,1-7.06-1.9,12.44,12.44,0,0,1-4.71-5.4,19.54,19.54,0,0,1-1.73-8.14v-3.13a19.62,19.62,0,0,1,1.68-8.36A12.59,12.59,0,0,1,486,89.87a13.44,13.44,0,0,1,7.27-2,13,13,0,0,1,8.94,3,12.55,12.55,0,0,1,3.94,8.51h-5.81a8.31,8.31,0,0,0-2.1-5.22,7,7,0,0,0-5-1.6,6.81,6.81,0,0,0-5.84,2.78q-2,2.77-2.09,8.15v3c0,3.63.65,6.39,1.95,8.3a6.46,6.46,0,0,0,5.7,2.86,7.52,7.52,0,0,0,5.16-1.54c1.16-1,1.89-2.75,2.19-5.14Z" transform="translate(-20.31 -20.09)"/><path class="cls-1" d="M569,92.58H558.52v28.85h-5.79V92.58H542.36v-4.7H569Z" transform="translate(-20.31 -20.09)"/><path class="cls-1" d="M619.84,121.92H614V88.37h5.8Z" transform="translate(-20.31 -20.09)"/><path class="cls-1" d="M677.69,114.62l8.52-26.25h6.41l-12.08,33.55H674.9l-12-33.55h6.38Z" transform="translate(-20.31 -20.09)"/><path class="cls-1" d="M748.35,106.29H734.57v10.32h16.11v4.65H728.75V87.71h21.77v4.71H734.57v9.26h13.78Z" transform="translate(-20.31 -20.09)"/><path class="cls-1" d="M138.57,147.52l9.68,25.71,9.65-25.71h7.54v33.55h-5.81V170l.58-14.8-9.91,25.86h-4.17l-9.89-25.83.58,14.77v11.06H131V147.52Z" transform="translate(-20.31 -20.09)"/><path class="cls-1" d="M218.54,166.09H204.76v10.32h16.11v4.66H198.93V147.52h21.78v4.7h-16v9.26h13.78Z" transform="translate(-20.31 -20.09)"/><path class="cls-1" d="M258.23,181.07V147.52h9.91a15.57,15.57,0,0,1,7.89,2,13.52,13.52,0,0,1,5.33,5.62,17.86,17.86,0,0,1,1.89,8.34v1.68a17.75,17.75,0,0,1-1.9,8.39,13.41,13.41,0,0,1-5.41,5.58,16.36,16.36,0,0,1-8.06,2Zm5.83-28.85v24.19h3.8a8.73,8.73,0,0,0,7-2.87c1.63-1.91,2.47-4.65,2.5-8.23v-1.87q0-5.46-2.37-8.34a8.43,8.43,0,0,0-6.89-2.88Z" transform="translate(-20.31 -20.09)"/><path class="cls-1" d="M333.24,181.07h-5.81V147.52h5.81Z" transform="translate(-20.31 -20.09)"/><path class="cls-1" d="M398.14,173.26h-13l-2.72,7.81h-6.06L389,147.52h5.23L407,181.07h-6.08Zm-11.36-4.71h9.72l-4.86-13.91Z" transform="translate(-20.31 -20.09)"/><path class="cls-1" d="M152.06,240.71V207.16H162a15.57,15.57,0,0,1,7.89,2,13.52,13.52,0,0,1,5.33,5.62,17.86,17.86,0,0,1,1.89,8.34v1.68a17.75,17.75,0,0,1-1.9,8.39,13.41,13.41,0,0,1-5.41,5.58,16.36,16.36,0,0,1-8.06,2Zm5.83-28.85v24.19h3.8a8.73,8.73,0,0,0,7-2.87c1.63-1.91,2.47-4.66,2.5-8.23v-1.87q0-5.46-2.37-8.34a8.43,8.43,0,0,0-6.89-2.88Z" transform="translate(-20.31 -20.09)"/><path class="cls-1" d="M233.38,225.75H219.6v10.32h16.11v4.66H213.77V207.18h21.78v4.7h-16v9.26h13.78Z" transform="translate(-20.31 -20.09)"/><path class="cls-1" d="M291.79,231.23a4.06,4.06,0,0,0-1.55-3.41,18.65,18.65,0,0,0-5.61-2.42,26.87,26.87,0,0,1-6.46-2.72q-4.57-2.88-4.58-7.51a8.18,8.18,0,0,1,3.3-6.68,13.42,13.42,0,0,1,8.59-2.63,14.47,14.47,0,0,1,6.24,1.29,10.22,10.22,0,0,1,4.31,3.68,9.37,9.37,0,0,1,1.57,5.28h-5.81a5.27,5.27,0,0,0-1.64-4.11,6.81,6.81,0,0,0-4.72-1.48,7.05,7.05,0,0,0-4.43,1.22,4,4,0,0,0-1.58,3.41,3.68,3.68,0,0,0,1.7,3.07,19.93,19.93,0,0,0,5.63,2.4,25.82,25.82,0,0,1,6.29,2.65,10.07,10.07,0,0,1,3.48,3.41,8.93,8.93,0,0,1,1.1,4.5,8,8,0,0,1-3.21,6.67c-2.14,1.66-5.05,2.48-8.72,2.48A16.4,16.4,0,0,1,279,239a11.23,11.23,0,0,1-4.74-3.72,9.26,9.26,0,0,1-1.7-5.53h5.83a5.44,5.44,0,0,0,1.89,4.43,8.32,8.32,0,0,0,5.42,1.56,7.2,7.2,0,0,0,4.57-1.23A4,4,0,0,0,291.79,231.23Z" transform="translate(-20.31 -20.09)"/><path class="cls-1" d="M348.61,239.87h-5.8V206.32h5.8Z" transform="translate(-20.31 -20.09)"/><path class="cls-1" d="M420.4,235.52a11.17,11.17,0,0,1-5,3.59,20.67,20.67,0,0,1-7.33,1.22,14.45,14.45,0,0,1-7.46-1.91,12.72,12.72,0,0,1-5-5.47,19.19,19.19,0,0,1-1.84-8.31V222q0-7.6,3.64-11.88t10.17-4.27q5.6,0,8.89,2.78a11.92,11.92,0,0,1,4,8h-5.71q-1-6.06-7-6.06a6.87,6.87,0,0,0-5.95,2.82q-2.06,2.82-2.11,8.28v2.58q0,5.43,2.29,8.43a7.55,7.55,0,0,0,6.37,3q4.47,0,6.36-2v-6.57h-6.91v-4.42H420.4Z" transform="translate(-20.31 -20.09)"/><path class="cls-1" d="M481.32,239.87h-5.83l-14.95-23.8v23.8h-5.83V206.32h5.83l15,23.9v-23.9h5.78Z" transform="translate(-20.31 -20.09)"/></svg>